<svg xmlns="http://www.w3.org/2000/svg" viewBox="0 0 457.04 88.43"><defs><style>.cls-1{fill:#34495d;}.cls-2{fill:#999;}</style></defs><title>artworklogo</title><g id="Capa_2" data-name="Capa 2"><g id="Capa_1-2" data-name="Capa 1"><path class="cls-1" d="M218,78.32l-4.11-12.9H196.38l-4.27,12.9H181.66L200.58,26.1h8.94l18.91,52.22ZM205.08,38l-6,18.91h12.1Z"/><path class="cls-1" d="M254.76,52.76a4.63,4.63,0,0,0-2.85-1.11c-1.53,0-3.06.93-4.59,2.77a10.8,10.8,0,0,0-2.53,7V78.32h-9.41V41.53h8.15l.39,8.07A34.59,34.59,0,0,1,248.55,43a5.69,5.69,0,0,1,4.07-2,6.78,6.78,0,0,1,5.15,2.61Z"/><path class="cls-1" d="M284.71,74.76c-.64.42-1.24.8-1.82,1.15l-1.66,1A16.59,16.59,0,0,1,273,79.35c-4.81,0-7.2-2.66-7.2-8V48.49h-5.46v-6l5.46-.95v-11h8.94v11h8v7h-8V64.87a14.74,14.74,0,0,0,.39,4.19,1.49,1.49,0,0,0,1.5,1.11,5.27,5.27,0,0,0,2-.47,21.8,21.8,0,0,0,3.08-1.82Z"/><path class="cls-1" d="M391.85,59.82a20.71,20.71,0,0,1-1.41,7.76,19.2,19.2,0,0,1-3.89,6.19,17.92,17.92,0,0,1-5.84,4.09,19,19,0,0,1-14.65,0,17.87,17.87,0,0,1-5.86-4.06,19.07,19.07,0,0,1-3.94-6.16,21.6,21.6,0,0,1-.05-15.43,19,19,0,0,1,3.9-6.18A18,18,0,0,1,366,42a19.08,19.08,0,0,1,14.64,0A18,18,0,0,1,386.46,46a19.16,19.16,0,0,1,3.93,6.16,20.45,20.45,0,0,1,1.46,7.67m-9.82,0a14.51,14.51,0,0,0-.72-4.58,13.84,13.84,0,0,0-1.91-3.76A9.74,9.74,0,0,0,376.62,49a6.42,6.42,0,0,0-3.33-.94,6.51,6.51,0,0,0-3.4,1,9.45,9.45,0,0,0-2.76,2.57,12.87,12.87,0,0,0-1.85,3.77,15.48,15.48,0,0,0-.66,4.59,15.85,15.85,0,0,0,.69,4.63,12.78,12.78,0,0,0,1.87,3.79A9.48,9.48,0,0,0,370,70.89a6.54,6.54,0,0,0,3.41.94,6.31,6.31,0,0,0,3.32-1,9.49,9.49,0,0,0,2.76-2.58,13.57,13.57,0,0,0,1.89-3.81,14.62,14.62,0,0,0,.69-4.63"/><path class="cls-1" d="M418,52.76a4.65,4.65,0,0,0-2.85-1.11c-1.54,0-3.07.93-4.59,2.77a10.81,10.81,0,0,0-2.54,7V78.32h-9.41V41.53h8.15l.4,8.07A34.63,34.63,0,0,1,411.74,43a5.71,5.71,0,0,1,4.08-2A6.76,6.76,0,0,1,421,43.58Z"/><polygon class="cls-1" points="446.28 78.32 434.81 59.41 434.81 78.32 425.39 78.32 425.39 20.64 434.81 20.64 434.81 57.43 446.28 41.53 456.89 41.53 443.67 58.46 457.04 78.32 446.28 78.32"/><path class="cls-1" d="M324.38,53.55c-2.91,8.3-6,17-8.66,24.67h-5.46l-17-51.3h7.64L313.1,63.67l8.37-23.8h5.89l8.3,23.73c4-12.16,8.44-25.11,12.22-36.68h7.72l-17,51.3h-5.46Z"/><path class="cls-1" d="M339.19,79h-6.54l-8.27-23.15-2.3,6.49c-1.92,5.43-3.92,11.05-5.64,16.15l-.18.51h-6.55L292.25,26.16h9.24l11.63,35.16,7.81-22.21h7l7.74,22.12c1.66-5,3.38-10.15,5.09-15.25,2.17-6.46,4.42-13.15,6.43-19.3l.17-.52h9.32Zm-5.47-1.52h4.37l16.46-49.78h-6.12c-2,6-4.15,12.5-6.26,18.79-1.95,5.81-3.92,11.68-5.79,17.36l-.7,2.13-8.86-25.33H322L313.08,66,300.39,27.68h-6l16.46,49.78h4.36c1.69-5,3.62-10.39,5.48-15.65,1-2.84,2-5.7,3-8.51l.71-2Z"/><path class="cls-2" d="M81.07,57.25,72.78,73.83,35.73,0H52.2ZM179.76,0,135.54,88.43,107.69,33.05,116,16.47l19.56,38.91L163.29,0Z"/><polygon class="cls-2" points="7.41 59.03 23.77 59.03 16.47 73.73 0 73.73 7.41 59.03"/></g></g></svg>